<svg version="1.1" xmlns="http://www.w3.org/2000/svg" xmlns:xlink="http://www.w3.org/1999/xlink" width="1423" height="973" viewBox="0 0 1423 973"><defs/><g transform="scale(1,1)"><path fill="none" stroke="rgb(0,0,33)" paint-order="fill stroke markers" d=" M 686.5 486.5 C 686.5 472.692881255 697.692881255 461.5 711.5 461.5 C 725.307118745 461.5 736.5 472.692881255 736.5 486.5 C 736.5 500.307118745 725.307118745 511.5 711.5 511.5 C 697.692881255 511.5 686.5 500.307118745 686.5 486.5" stroke-opacity="1" stroke-linecap="round" stroke-miterlimit="10"/><path fill="none" stroke="rgb(0,0,33)" paint-order="fill stroke markers" d=" M 681.5 482.5 C 681.5 468.692881255 692.692881255 457.5 706.5 457.5 C 720.307118745 457.5 731.5 468.692881255 731.5 482.5 C 731.5 496.307118745 720.307118745 507.5 706.5 507.5 C 692.692881255 507.5 681.5 496.307118745 681.5 482.5" stroke-opacity="1" stroke-linecap="round" stroke-miterlimit="10"/><path fill="none" stroke="rgb(0,0,33)" paint-order="fill stroke markers" d=" M 684.5 486.5 C 684.5 471.5883117554 696.5883117554 459.5 711.5 459.5 C 726.4116882446 459.5 738.5 471.5883117554 738.5 486.5 C 738.5 501.4116882446 726.4116882446 513.5 711.5 513.5 C 696.5883117554 513.5 684.5 501.4116882446 684.5 486.5" stroke-opacity="1" stroke-linecap="round" stroke-miterlimit="10"/><path fill="none" stroke="rgb(0,0,33)" paint-order="fill stroke markers" d=" M 679.5 482.5 C 679.5 467.5883117554 691.5883117554 455.5 706.5 455.5 C 721.4116882446 455.5 733.5 467.5883117554 733.5 482.5 C 733.5 497.4116882446 721.4116882446 509.5 706.5 509.5 C 691.5883117554 509.5 679.5 497.4116882446 679.5 482.5" stroke-opacity="1" stroke-linecap="round" stroke-miterlimit="10"/><path fill="none" stroke="rgb(0,0,33)" paint-order="fill stroke markers" d=" M 682.5 486.5 C 682.5 470.4837422558 695.4837422558 457.5 711.5 457.5 C 727.5162577442 457.5 740.5 470.4837422558 740.5 486.5 C 740.5 502.5162577442 727.5162577442 515.5 711.5 515.5 C 695.4837422558 515.5 682.5 502.5162577442 682.5 486.5" stroke-opacity="1" stroke-linecap="round" stroke-miterlimit="10"/><path fill="none" stroke="rgb(0,0,33)" paint-order="fill stroke markers" d=" M 677.5 482.5 C 677.5 466.4837422558 690.4837422558 453.5 706.5 453.5 C 722.5162577442 453.5 735.5 466.4837422558 735.5 482.5 C 735.5 498.5162577442 722.5162577442 511.5 706.5 511.5 C 690.4837422558 511.5 677.5 498.5162577442 677.5 482.5" stroke-opacity="1" stroke-linecap="round" stroke-miterlimit="10"/><path fill="none" stroke="rgb(0,0,33)" paint-order="fill stroke markers" d=" M 680.5 486.5 C 680.5 469.3791727562 694.3791727562 455.5 711.5 455.5 C 728.6208272438 455.5 742.5 469.3791727562 742.5 486.5 C 742.5 503.6208272438 728.6208272438 517.5 711.5 517.5 C 694.3791727562 517.5 680.5 503.6208272438 680.5 486.5" stroke-opacity="1" stroke-linecap="round" stroke-miterlimit="10"/><path fill="none" stroke="rgb(0,0,33)" paint-order="fill stroke markers" d=" M 675.5 482.5 C 675.5 465.3791727562 689.3791727562 451.5 706.5 451.5 C 723.6208272438 451.5 737.5 465.3791727562 737.5 482.5 C 737.5 499.6208272438 723.6208272438 513.5 706.5 513.5 C 689.3791727562 513.5 675.5 499.6208272438 675.5 482.5" stroke-opacity="1" stroke-linecap="round" stroke-miterlimit="10"/><path fill="none" stroke="rgb(0,0,33)" paint-order="fill stroke markers" d=" M 678.5 486.5 C 678.5 468.2746032566 693.2746032566 453.5 711.5 453.5 C 729.7253967434 453.5 744.5 468.2746032566 744.5 486.5 C 744.5 504.7253967434 729.7253967434 519.5 711.5 519.5 C 693.2746032566 519.5 678.5 504.7253967434 678.5 486.5" stroke-opacity="1" stroke-linecap="round" stroke-miterlimit="10"/><path fill="none" stroke="rgb(0,0,33)" paint-order="fill stroke markers" d=" M 673.5 482.5 C 673.5 464.2746032566 688.2746032566 449.5 706.5 449.5 C 724.7253967434 449.5 739.5 464.2746032566 739.5 482.5 C 739.5 500.7253967434 724.7253967434 515.5 706.5 515.5 C 688.2746032566 515.5 673.5 500.7253967434 673.5 482.5" stroke-opacity="1" stroke-linecap="round" stroke-miterlimit="10"/><path fill="none" stroke="rgb(0,0,33)" paint-order="fill stroke markers" d=" M 676.5 486.5 C 676.5 467.170033757 692.170033757 451.5 711.5 451.5 C 730.829966243 451.5 746.5 467.170033757 746.5 486.5 C 746.5 505.829966243 730.829966243 521.5 711.5 521.5 C 692.170033757 521.5 676.5 505.829966243 676.5 486.5" stroke-opacity="1" stroke-linecap="round" stroke-miterlimit="10"/><path fill="none" stroke="rgb(0,0,33)" paint-order="fill stroke markers" d=" M 671.5 482.5 C 671.5 463.170033757 687.170033757 447.5 706.5 447.5 C 725.829966243 447.5 741.5 463.170033757 741.5 482.5 C 741.5 501.829966243 725.829966243 517.5 706.5 517.5 C 687.170033757 517.5 671.5 501.829966243 671.5 482.5" stroke-opacity="1" stroke-linecap="round" stroke-miterlimit="10"/><path fill="none" stroke="rgb(0,0,33)" paint-order="fill stroke markers" d=" M 674.5 486.5 C 674.5 466.0654642574 691.0654642574 449.5 711.5 449.5 C 731.9345357426 449.5 748.5 466.0654642574 748.5 486.5 C 748.5 506.9345357426 731.9345357426 523.5 711.5 523.5 C 691.0654642574 523.5 674.5 506.9345357426 674.5 486.5" stroke-opacity="1" stroke-linecap="round" stroke-miterlimit="10"/><path fill="none" stroke="rgb(0,0,33)" paint-order="fill stroke markers" d=" M 669.5 482.5 C 669.5 462.0654642574 686.0654642574 445.5 706.5 445.5 C 726.9345357426 445.5 743.5 462.0654642574 743.5 482.5 C 743.5 502.9345357426 726.9345357426 519.5 706.5 519.5 C 686.0654642574 519.5 669.5 502.9345357426 669.5 482.5" stroke-opacity="1" stroke-linecap="round" stroke-miterlimit="10"/><path fill="none" stroke="rgb(0,0,33)" paint-order="fill stroke markers" d=" M 672.5 486.5 C 672.5 464.9608947578 689.9608947578 447.5 711.5 447.5 C 733.0391052422 447.5 750.5 464.9608947578 750.5 486.5 C 750.5 508.0391052422 733.0391052422 525.5 711.5 525.5 C 689.9608947578 525.5 672.5 508.0391052422 672.5 486.5" stroke-opacity="1" stroke-linecap="round" stroke-miterlimit="10"/><path fill="none" stroke="rgb(0,0,33)" paint-order="fill stroke markers" d=" M 667.5 482.5 C 667.5 460.9608947578 684.9608947578 443.5 706.5 443.5 C 728.0391052422 443.5 745.5 460.9608947578 745.5 482.5 C 745.5 504.0391052422 728.0391052422 521.5 706.5 521.5 C 684.9608947578 521.5 667.5 504.0391052422 667.5 482.5" stroke-opacity="1" stroke-linecap="round" stroke-miterlimit="10"/><path fill="none" stroke="rgb(0,0,33)" paint-order="fill stroke markers" d=" M 670.5 486.5 C 670.5 463.8563252582 688.8563252582001 445.5 711.5 445.5 C 734.1436747417999 445.5 752.5 463.8563252582 752.5 486.5 C 752.5 509.1436747418 734.1436747417999 527.5 711.5 527.5 C 688.8563252582001 527.5 670.5 509.1436747418 670.5 486.5" stroke-opacity="1" stroke-linecap="round" stroke-miterlimit="10"/><path fill="none" stroke="rgb(0,0,33)" paint-order="fill stroke markers" d=" M 665.5 482.5 C 665.5 459.8563252582 683.8563252582001 441.5 706.5 441.5 C 729.1436747417999 441.5 747.5 459.8563252582 747.5 482.5 C 747.5 505.1436747418 729.1436747417999 523.5 706.5 523.5 C 683.8563252582001 523.5 665.5 505.1436747418 665.5 482.5" stroke-opacity="1" stroke-linecap="round" stroke-miterlimit="10"/><path fill="none" stroke="rgb(0,0,33)" paint-order="fill stroke markers" d=" M 668.5 486.5 C 668.5 462.7517557586 687.7517557586 443.5 711.5 443.5 C 735.2482442414 443.5 754.5 462.7517557586 754.5 486.5 C 754.5 510.2482442414 735.2482442414 529.5 711.5 529.5 C 687.7517557586 529.5 668.5 510.2482442414 668.5 486.5" stroke-opacity="1" stroke-linecap="round" stroke-miterlimit="10"/><path fill="none" stroke="rgb(0,0,33)" paint-order="fill stroke markers" d=" M 663.5 482.5 C 663.5 458.7517557586 682.7517557586 439.5 706.5 439.5 C 730.2482442414 439.5 749.5 458.7517557586 749.5 482.5 C 749.5 506.2482442414 730.2482442414 525.5 706.5 525.5 C 682.7517557586 525.5 663.5 506.2482442414 663.5 482.5" stroke-opacity="1" stroke-linecap="round" stroke-miterlimit="10"/><path fill="none" stroke="rgb(0,0,33)" paint-order="fill stroke markers" d=" M 666.5 486.5 C 666.5 461.647186259 686.647186259 441.5 711.5 441.5 C 736.352813741 441.5 756.5 461.647186259 756.5 486.5 C 756.5 511.352813741 736.352813741 531.5 711.5 531.5 C 686.647186259 531.5 666.5 511.352813741 666.5 486.5" stroke-opacity="1" stroke-linecap="round" stroke-miterlimit="10"/><path fill="none" stroke="rgb(0,0,33)" paint-order="fill stroke markers" d=" M 661.5 482.5 C 661.5 457.647186259 681.647186259 437.5 706.5 437.5 C 731.352813741 437.5 751.5 457.647186259 751.5 482.5 C 751.5 507.352813741 731.352813741 527.5 706.5 527.5 C 681.647186259 527.5 661.5 507.352813741 661.5 482.5" stroke-opacity="1" stroke-linecap="round" stroke-miterlimit="10"/><path fill="none" stroke="rgb(0,0,33)" paint-order="fill stroke markers" d=" M 664.5 486.5 C 664.5 460.5426167594 685.5426167594 439.5 711.5 439.5 C 737.4573832406 439.5 758.5 460.5426167594 758.5 486.5 C 758.5 512.4573832406 737.4573832406 533.5 711.5 533.5 C 685.5426167594 533.5 664.5 512.4573832406 664.5 486.5" stroke-opacity="1" stroke-linecap="round" stroke-miterlimit="10"/><path fill="none" stroke="rgb(0,0,33)" paint-order="fill stroke markers" d=" M 659.5 482.5 C 659.5 456.5426167594 680.5426167594 435.5 706.5 435.5 C 732.4573832406 435.5 753.5 456.5426167594 753.5 482.5 C 753.5 508.4573832406 732.4573832406 529.5 706.5 529.5 C 680.5426167594 529.5 659.5 508.4573832406 659.5 482.5" stroke-opacity="1" stroke-linecap="round" stroke-miterlimit="10"/><path fill="none" stroke="rgb(0,0,33)" paint-order="fill stroke markers" d=" M 662.5 486.5 C 662.5 459.4380472598 684.4380472598 437.5 711.5 437.5 C 738.5619527402 437.5 760.5 459.4380472598 760.5 486.5 C 760.5 513.5619527402 738.5619527402 535.5 711.5 535.5 C 684.4380472598 535.5 662.5 513.5619527402 662.5 486.5" stroke-opacity="1" stroke-linecap="round" stroke-miterlimit="10"/><path fill="none" stroke="rgb(0,0,33)" paint-order="fill stroke markers" d=" M 657.5 482.5 C 657.5 455.4380472598 679.4380472598 433.5 706.5 433.5 C 733.5619527402 433.5 755.5 455.4380472598 755.5 482.5 C 755.5 509.5619527402 733.5619527402 531.5 706.5 531.5 C 679.4380472598 531.5 657.5 509.5619527402 657.5 482.5" stroke-opacity="1" stroke-linecap="round" stroke-miterlimit="10"/><path fill="none" stroke="rgb(0,0,33)" paint-order="fill stroke markers" d=" M 660.5 486.5 C 660.5 458.3334777602 683.3334777602 435.5 711.5 435.5 C 739.6665222398 435.5 762.5 458.3334777602 762.5 486.5 C 762.5 514.6665222398 739.6665222398 537.5 711.5 537.5 C 683.3334777602 537.5 660.5 514.6665222398 660.5 486.5" stroke-opacity="1" stroke-linecap="round" stroke-miterlimit="10"/><path fill="none" stroke="rgb(0,0,33)" paint-order="fill stroke markers" d=" M 655.5 482.5 C 655.5 454.3334777602 678.3334777602 431.5 706.5 431.5 C 734.6665222398 431.5 757.5 454.3334777602 757.5 482.5 C 757.5 510.6665222398 734.6665222398 533.5 706.5 533.5 C 678.3334777602 533.5 655.5 510.6665222398 655.5 482.5" stroke-opacity="1" stroke-linecap="round" stroke-miterlimit="10"/><path fill="none" stroke="rgb(0,0,33)" paint-order="fill stroke markers" d=" M 658.5 486.5 C 658.5 457.2289082606 682.2289082606 433.5 711.5 433.5 C 740.7710917394 433.5 764.5 457.2289082606 764.5 486.5 C 764.5 515.7710917394 740.7710917394 539.5 711.5 539.5 C 682.2289082606 539.5 658.5 515.7710917394 658.5 486.5" stroke-opacity="1" stroke-linecap="round" stroke-miterlimit="10"/><path fill="none" stroke="rgb(0,0,33)" paint-order="fill stroke markers" d=" M 653.5 482.5 C 653.5 453.2289082606 677.2289082606 429.5 706.5 429.5 C 735.7710917394 429.5 759.5 453.2289082606 759.5 482.5 C 759.5 511.7710917394 735.7710917394 535.5 706.5 535.5 C 677.2289082606 535.5 653.5 511.7710917394 653.5 482.5" stroke-opacity="1" stroke-linecap="round" stroke-miterlimit="10"/><path fill="none" stroke="rgb(0,0,33)" paint-order="fill stroke markers" d=" M 656.5 486.5 C 656.5 456.124338761 681.124338761 431.5 711.5 431.5 C 741.875661239 431.5 766.5 456.124338761 766.5 486.5 C 766.5 516.875661239 741.875661239 541.5 711.5 541.5 C 681.124338761 541.5 656.5 516.875661239 656.5 486.5" stroke-opacity="1" stroke-linecap="round" stroke-miterlimit="10"/><path fill="none" stroke="rgb(0,0,33)" paint-order="fill stroke markers" d=" M 651.5 482.5 C 651.5 452.124338761 676.124338761 427.5 706.5 427.5 C 736.875661239 427.5 761.5 452.124338761 761.5 482.5 C 761.5 512.875661239 736.875661239 537.5 706.5 537.5 C 676.124338761 537.5 651.5 512.875661239 651.5 482.5" stroke-opacity="1" stroke-linecap="round" stroke-miterlimit="10"/><path fill="none" stroke="rgb(0,0,33)" paint-order="fill stroke markers" d=" M 654.5 486.5 C 654.5 455.01976926140003 680.0197692614 429.5 711.5 429.5 C 742.9802307386 429.5 768.5 455.01976926140003 768.5 486.5 C 768.5 517.9802307386 742.9802307386 543.5 711.5 543.5 C 680.0197692614 543.5 654.5 517.9802307386 654.5 486.5" stroke-opacity="1" stroke-linecap="round" stroke-miterlimit="10"/><path fill="none" stroke="rgb(0,0,33)" paint-order="fill stroke markers" d=" M 649.5 482.5 C 649.5 451.01976926140003 675.0197692614 425.5 706.5 425.5 C 737.9802307386 425.5 763.5 451.01976926140003 763.5 482.5 C 763.5 513.9802307386 737.9802307386 539.5 706.5 539.5 C 675.0197692614 539.5 649.5 513.9802307386 649.5 482.5" stroke-opacity="1" stroke-linecap="round" stroke-miterlimit="10"/><path fill="none" stroke="rgb(0,0,33)" paint-order="fill stroke markers" d=" M 652.5 486.5 C 652.5 453.9151997618 678.9151997618 427.5 711.5 427.5 C 744.0848002382 427.5 770.5 453.9151997618 770.5 486.5 C 770.5 519.0848002382 744.0848002382 545.5 711.5 545.5 C 678.9151997618 545.5 652.5 519.0848002382 652.5 486.5" stroke-opacity="1" stroke-linecap="round" stroke-miterlimit="10"/><path fill="none" stroke="rgb(0,0,33)" paint-order="fill stroke markers" d=" M 647.5 482.5 C 647.5 449.9151997618 673.9151997618 423.5 706.5 423.5 C 739.0848002382 423.5 765.5 449.9151997618 765.5 482.5 C 765.5 515.0848002382 739.0848002382 541.5 706.5 541.5 C 673.9151997618 541.5 647.5 515.0848002382 647.5 482.5" stroke-opacity="1" stroke-linecap="round" stroke-miterlimit="10"/><path fill="none" stroke="rgb(0,0,33)" paint-order="fill stroke markers" d=" M 650.5 486.5 C 650.5 452.8106302622 677.8106302622 425.5 711.5 425.5 C 745.1893697378 425.5 772.5 452.8106302622 772.5 486.5 C 772.5 520.1893697378 745.1893697378 547.5 711.5 547.5 C 677.8106302622 547.5 650.5 520.1893697378 650.5 486.5" stroke-opacity="1" stroke-linecap="round" stroke-miterlimit="10"/><path fill="none" stroke="rgb(0,0,33)" paint-order="fill stroke markers" d=" M 645.5 482.5 C 645.5 448.8106302622 672.8106302622 421.5 706.5 421.5 C 740.1893697378 421.5 767.5 448.8106302622 767.5 482.5 C 767.5 516.1893697378 740.1893697378 543.5 706.5 543.5 C 672.8106302622 543.5 645.5 516.1893697378 645.5 482.5" stroke-opacity="1" stroke-linecap="round" stroke-miterlimit="10"/><path fill="none" stroke="rgb(0,0,33)" paint-order="fill stroke markers" d=" M 648.5 486.5 C 648.5 451.70606076260003 676.7060607626 423.5 711.5 423.5 C 746.2939392374 423.5 774.5 451.70606076260003 774.5 486.5 C 774.5 521.2939392374 746.2939392374 549.5 711.5 549.5 C 676.7060607626 549.5 648.5 521.2939392374 648.5 486.5" stroke-opacity="1" stroke-linecap="round" stroke-miterlimit="10"/><path fill="none" stroke="rgb(0,0,33)" paint-order="fill stroke markers" d=" M 643.5 482.5 C 643.5 447.70606076260003 671.7060607626 419.5 706.5 419.5 C 741.2939392374 419.5 769.5 447.70606076260003 769.5 482.5 C 769.5 517.2939392374 741.2939392374 545.5 706.5 545.5 C 671.7060607626 545.5 643.5 517.2939392374 643.5 482.5" stroke-opacity="1" stroke-linecap="round" stroke-miterlimit="10"/><path fill="none" stroke="rgb(0,0,33)" paint-order="fill stroke markers" d=" M 646.5 486.5 C 646.5 450.601491263 675.601491263 421.5 711.5 421.5 C 747.398508737 421.5 776.5 450.601491263 776.5 486.5 C 776.5 522.398508737 747.398508737 551.5 711.5 551.5 C 675.601491263 551.5 646.5 522.398508737 646.5 486.5" stroke-opacity="1" stroke-linecap="round" stroke-miterlimit="10"/><path fill="none" stroke="rgb(0,0,33)" paint-order="fill stroke markers" d=" M 641.5 482.5 C 641.5 446.601491263 670.601491263 417.5 706.5 417.5 C 742.398508737 417.5 771.5 446.601491263 771.5 482.5 C 771.5 518.398508737 742.398508737 547.5 706.5 547.5 C 670.601491263 547.5 641.5 518.398508737 641.5 482.5" stroke-opacity="1" stroke-linecap="round" stroke-miterlimit="10"/><path fill="none" stroke="rgb(0,0,33)" paint-order="fill stroke markers" d=" M 644.5 486.5 C 644.5 449.4969217634 674.4969217634 419.5 711.5 419.5 C 748.5030782366 419.5 778.5 449.4969217634 778.5 486.5 C 778.5 523.5030782366 748.5030782366 553.5 711.5 553.5 C 674.4969217634 553.5 644.5 523.5030782366 644.5 486.5" stroke-opacity="1" stroke-linecap="round" stroke-miterlimit="10"/><path fill="none" stroke="rgb(0,0,33)" paint-order="fill stroke markers" d=" M 639.5 482.5 C 639.5 445.4969217634 669.4969217634 415.5 706.5 415.5 C 743.5030782366 415.5 773.5 445.4969217634 773.5 482.5 C 773.5 519.5030782366 743.5030782366 549.5 706.5 549.5 C 669.4969217634 549.5 639.5 519.5030782366 639.5 482.5" stroke-opacity="1" stroke-linecap="round" stroke-miterlimit="10"/><path fill="none" stroke="rgb(0,0,33)" paint-order="fill stroke markers" d=" M 642.5 486.5 C 642.5 448.3923522638 673.3923522638 417.5 711.5 417.5 C 749.6076477362 417.5 780.5 448.3923522638 780.5 486.5 C 780.5 524.6076477362 749.6076477362 555.5 711.5 555.5 C 673.3923522638 555.5 642.5 524.6076477362 642.5 486.5" stroke-opacity="1" stroke-linecap="round" stroke-miterlimit="10"/><path fill="none" stroke="rgb(0,0,33)" paint-order="fill stroke markers" d=" M 637.5 482.5 C 637.5 444.3923522638 668.3923522638 413.5 706.5 413.5 C 744.6076477362 413.5 775.5 444.3923522638 775.5 482.5 C 775.5 520.6076477362 744.6076477362 551.5 706.5 551.5 C 668.3923522638 551.5 637.5 520.6076477362 637.5 482.5" stroke-opacity="1" stroke-linecap="round" stroke-miterlimit="10"/><path fill="none" stroke="rgb(0,0,33)" paint-order="fill stroke markers" d=" M 640.5 486.5 C 640.5 447.2877827642 672.2877827642 415.5 711.5 415.5 C 750.7122172358 415.5 782.5 447.2877827642 782.5 486.5 C 782.5 525.7122172358 750.7122172358 557.5 711.5 557.5 C 672.2877827642 557.5 640.5 525.7122172358 640.5 486.5" stroke-opacity="1" stroke-linecap="round" stroke-miterlimit="10"/><path fill="none" stroke="rgb(0,0,33)" paint-order="fill stroke markers" d=" M 635.5 482.5 C 635.5 443.2877827642 667.2877827642 411.5 706.5 411.5 C 745.7122172358 411.5 777.5 443.2877827642 777.5 482.5 C 777.5 521.7122172358 745.7122172358 553.5 706.5 553.5 C 667.2877827642 553.5 635.5 521.7122172358 635.5 482.5" stroke-opacity="1" stroke-linecap="round" stroke-miterlimit="10"/><path fill="none" stroke="rgb(0,0,33)" paint-order="fill stroke markers" d=" M 638.5 486.5 C 638.5 446.1832132646 671.1832132646 413.5 711.5 413.5 C 751.8167867354 413.5 784.5 446.1832132646 784.5 486.5 C 784.5 526.8167867354 751.8167867354 559.5 711.5 559.5 C 671.1832132646 559.5 638.5 526.8167867354 638.5 486.5" stroke-opacity="1" stroke-linecap="round" stroke-miterlimit="10"/><path fill="none" stroke="rgb(0,0,33)" paint-order="fill stroke markers" d=" M 633.5 482.5 C 633.5 442.1832132646 666.1832132646 409.5 706.5 409.5 C 746.8167867354 409.5 779.5 442.1832132646 779.5 482.5 C 779.5 522.8167867354 746.8167867354 555.5 706.5 555.5 C 666.1832132646 555.5 633.5 522.8167867354 633.5 482.5" stroke-opacity="1" stroke-linecap="round" stroke-miterlimit="10"/><path fill="none" stroke="rgb(0,0,33)" paint-order="fill stroke markers" d=" M 636.5 486.5 C 636.5 445.078643765 670.078643765 411.5 711.5 411.5 C 752.921356235 411.5 786.5 445.078643765 786.5 486.5 C 786.5 527.921356235 752.921356235 561.5 711.5 561.5 C 670.078643765 561.5 636.5 527.921356235 636.5 486.5" stroke-opacity="1" stroke-linecap="round" stroke-miterlimit="10"/><path fill="none" stroke="rgb(0,0,33)" paint-order="fill stroke markers" d=" M 631.5 482.5 C 631.5 441.078643765 665.078643765 407.5 706.5 407.5 C 747.921356235 407.5 781.5 441.078643765 781.5 482.5 C 781.5 523.921356235 747.921356235 557.5 706.5 557.5 C 665.078643765 557.5 631.5 523.921356235 631.5 482.5" stroke-opacity="1" stroke-linecap="round" stroke-miterlimit="10"/><path fill="none" stroke="rgb(0,0,33)" paint-order="fill stroke markers" d=" M 634.5 486.5 C 634.5 443.9740742654 668.9740742654 409.5 711.5 409.5 C 754.0259257346 409.5 788.5 443.9740742654 788.5 486.5 C 788.5 529.0259257346 754.0259257346 563.5 711.5 563.5 C 668.9740742654 563.5 634.5 529.0259257346 634.5 486.5" stroke-opacity="1" stroke-linecap="round" stroke-miterlimit="10"/><path fill="none" stroke="rgb(0,0,33)" paint-order="fill stroke markers" d=" M 629.5 482.5 C 629.5 439.9740742654 663.9740742654 405.5 706.5 405.5 C 749.0259257346 405.5 783.5 439.9740742654 783.5 482.5 C 783.5 525.0259257346 749.0259257346 559.5 706.5 559.5 C 663.9740742654 559.5 629.5 525.0259257346 629.5 482.5" stroke-opacity="1" stroke-linecap="round" stroke-miterlimit="10"/><path fill="none" stroke="rgb(0,0,33)" paint-order="fill stroke markers" d=" M 632.5 486.5 C 632.5 442.8695047658 667.8695047658 407.5 711.5 407.5 C 755.1304952342 407.5 790.5 442.8695047658 790.5 486.5 C 790.5 530.1304952342 755.1304952342 565.5 711.5 565.5 C 667.8695047658 565.5 632.5 530.1304952342 632.5 486.5" stroke-opacity="1" stroke-linecap="round" stroke-miterlimit="10"/><path fill="none" stroke="rgb(0,0,33)" paint-order="fill stroke markers" d=" M 627.5 482.5 C 627.5 438.8695047658 662.8695047658 403.5 706.5 403.5 C 750.1304952342 403.5 785.5 438.8695047658 785.5 482.5 C 785.5 526.1304952342 750.1304952342 561.5 706.5 561.5 C 662.8695047658 561.5 627.5 526.1304952342 627.5 482.5" stroke-opacity="1" stroke-linecap="round" stroke-miterlimit="10"/><path fill="none" stroke="rgb(0,0,33)" paint-order="fill stroke markers" d=" M 630.5 486.5 C 630.5 441.7649352662 666.7649352662 405.5 711.5 405.5 C 756.2350647338 405.5 792.5 441.7649352662 792.5 486.5 C 792.5 531.2350647338 756.2350647338 567.5 711.5 567.5 C 666.7649352662 567.5 630.5 531.2350647338 630.5 486.5" stroke-opacity="1" stroke-linecap="round" stroke-miterlimit="10"/><path fill="none" stroke="rgb(0,0,33)" paint-order="fill stroke markers" d=" M 625.5 482.5 C 625.5 437.7649352662 661.7649352662 401.5 706.5 401.5 C 751.2350647338 401.5 787.5 437.7649352662 787.5 482.5 C 787.5 527.2350647338 751.2350647338 563.5 706.5 563.5 C 661.7649352662 563.5 625.5 527.2350647338 625.5 482.5" stroke-opacity="1" stroke-linecap="round" stroke-miterlimit="10"/><path fill="none" stroke="rgb(0,0,33)" paint-order="fill stroke markers" d=" M 628.5 486.5 C 628.5 440.6603657666 665.6603657666 403.5 711.5 403.5 C 757.3396342334 403.5 794.5 440.6603657666 794.5 486.5 C 794.5 532.3396342334 757.3396342334 569.5 711.5 569.5 C 665.6603657666 569.5 628.5 532.3396342334 628.5 486.5" stroke-opacity="1" stroke-linecap="round" stroke-miterlimit="10"/><path fill="none" stroke="rgb(0,0,33)" paint-order="fill stroke markers" d=" M 623.5 482.5 C 623.5 436.6603657666 660.6603657666 399.5 706.5 399.5 C 752.3396342334 399.5 789.5 436.6603657666 789.5 482.5 C 789.5 528.3396342334 752.3396342334 565.5 706.5 565.5 C 660.6603657666 565.5 623.5 528.3396342334 623.5 482.5" stroke-opacity="1" stroke-linecap="round" stroke-miterlimit="10"/><path fill="none" stroke="rgb(0,0,33)" paint-order="fill stroke markers" d=" M 626.5 486.5 C 626.5 439.555796267 664.555796267 401.5 711.5 401.5 C 758.444203733 401.5 796.5 439.555796267 796.5 486.5 C 796.5 533.444203733 758.444203733 571.5 711.5 571.5 C 664.555796267 571.5 626.5 533.444203733 626.5 486.5" stroke-opacity="1" stroke-linecap="round" stroke-miterlimit="10"/><path fill="none" stroke="rgb(0,0,33)" paint-order="fill stroke markers" d=" M 621.5 482.5 C 621.5 435.555796267 659.555796267 397.5 706.5 397.5 C 753.444203733 397.5 791.5 435.555796267 791.5 482.5 C 791.5 529.444203733 753.444203733 567.5 706.5 567.5 C 659.555796267 567.5 621.5 529.444203733 621.5 482.5" stroke-opacity="1" stroke-linecap="round" stroke-miterlimit="10"/><path fill="none" stroke="rgb(0,0,33)" paint-order="fill stroke markers" d=" M 624.5 486.5 C 624.5 438.4512267674 663.4512267674 399.5 711.5 399.5 C 759.5487732326 399.5 798.5 438.4512267674 798.5 486.5 C 798.5 534.5487732326 759.5487732326 573.5 711.5 573.5 C 663.4512267674 573.5 624.5 534.5487732326 624.5 486.5" stroke-opacity="1" stroke-linecap="round" stroke-miterlimit="10"/><path fill="none" stroke="rgb(0,0,33)" paint-order="fill stroke markers" d=" M 619.5 482.5 C 619.5 434.4512267674 658.4512267674 395.5 706.5 395.5 C 754.5487732326 395.5 793.5 434.4512267674 793.5 482.5 C 793.5 530.5487732326 754.5487732326 569.5 706.5 569.5 C 658.4512267674 569.5 619.5 530.5487732326 619.5 482.5" stroke-opacity="1" stroke-linecap="round" stroke-miterlimit="10"/><path fill="none" stroke="rgb(0,0,33)" paint-order="fill stroke markers" d=" M 622.5 486.5 C 622.5 437.3466572678 662.3466572678 397.5 711.5 397.5 C 760.6533427322 397.5 800.5 437.3466572678 800.5 486.5 C 800.5 535.6533427322 760.6533427322 575.5 711.5 575.5 C 662.3466572678 575.5 622.5 535.6533427322 622.5 486.5" stroke-opacity="1" stroke-linecap="round" stroke-miterlimit="10"/><path fill="none" stroke="rgb(0,0,33)" paint-order="fill stroke markers" d=" M 617.5 482.5 C 617.5 433.3466572678 657.3466572678 393.5 706.5 393.5 C 755.6533427322 393.5 795.5 433.3466572678 795.5 482.5 C 795.5 531.6533427322 755.6533427322 571.5 706.5 571.5 C 657.3466572678 571.5 617.5 531.6533427322 617.5 482.5" stroke-opacity="1" stroke-linecap="round" stroke-miterlimit="10"/><path fill="none" stroke="rgb(0,0,33)" paint-order="fill stroke markers" d=" M 620.5 486.5 C 620.5 436.2420877682 661.2420877682 395.5 711.5 395.5 C 761.7579122318 395.5 802.5 436.2420877682 802.5 486.5 C 802.5 536.7579122318 761.7579122318 577.5 711.5 577.5 C 661.2420877682 577.5 620.5 536.7579122318 620.5 486.5" stroke-opacity="1" stroke-linecap="round" stroke-miterlimit="10"/><path fill="none" stroke="rgb(0,0,33)" paint-order="fill stroke markers" d=" M 615.5 482.5 C 615.5 432.2420877682 656.2420877682 391.5 706.5 391.5 C 756.7579122318 391.5 797.5 432.2420877682 797.5 482.5 C 797.5 532.7579122318 756.7579122318 573.5 706.5 573.5 C 656.2420877682 573.5 615.5 532.7579122318 615.5 482.5" stroke-opacity="1" stroke-linecap="round" stroke-miterlimit="10"/><path fill="none" stroke="rgb(0,0,33)" paint-order="fill stroke markers" d=" M 618.5 486.5 C 618.5 435.1375182686 660.1375182686 393.5 711.5 393.5 C 762.8624817314 393.5 804.5 435.1375182686 804.5 486.5 C 804.5 537.8624817314 762.8624817314 579.5 711.5 579.5 C 660.1375182686 579.5 618.5 537.8624817314 618.5 486.5" stroke-opacity="1" stroke-linecap="round" stroke-miterlimit="10"/><path fill="none" stroke="rgb(0,0,33)" paint-order="fill stroke markers" d=" M 613.5 482.5 C 613.5 431.1375182686 655.1375182686 389.5 706.5 389.5 C 757.8624817314 389.5 799.5 431.1375182686 799.5 482.5 C 799.5 533.8624817314 757.8624817314 575.5 706.5 575.5 C 655.1375182686 575.5 613.5 533.8624817314 613.5 482.5" stroke-opacity="1" stroke-linecap="round" stroke-miterlimit="10"/><path fill="none" stroke="rgb(0,0,33)" paint-order="fill stroke markers" d=" M 616.5 486.5 C 616.5 434.032948769 659.032948769 391.5 711.5 391.5 C 763.967051231 391.5 806.5 434.032948769 806.5 486.5 C 806.5 538.967051231 763.967051231 581.5 711.5 581.5 C 659.032948769 581.5 616.5 538.967051231 616.5 486.5" stroke-opacity="1" stroke-linecap="round" stroke-miterlimit="10"/><path fill="none" stroke="rgb(0,0,33)" paint-order="fill stroke markers" d=" M 611.5 482.5 C 611.5 430.032948769 654.032948769 387.5 706.5 387.5 C 758.967051231 387.5 801.5 430.032948769 801.5 482.5 C 801.5 534.967051231 758.967051231 577.5 706.5 577.5 C 654.032948769 577.5 611.5 534.967051231 611.5 482.5" stroke-opacity="1" stroke-linecap="round" stroke-miterlimit="10"/><path fill="none" stroke="rgb(0,0,33)" paint-order="fill stroke markers" d=" M 614.5 486.5 C 614.5 432.9283792694 657.9283792694 389.5 711.5 389.5 C 765.0716207306 389.5 808.5 432.9283792694 808.5 486.5 C 808.5 540.0716207306 765.0716207306 583.5 711.5 583.5 C 657.9283792694 583.5 614.5 540.0716207306 614.5 486.5" stroke-opacity="1" stroke-linecap="round" stroke-miterlimit="10"/><path fill="none" stroke="rgb(0,0,33)" paint-order="fill stroke markers" d=" M 609.5 482.5 C 609.5 428.9283792694 652.9283792694 385.5 706.5 385.5 C 760.0716207306 385.5 803.5 428.9283792694 803.5 482.5 C 803.5 536.0716207306 760.0716207306 579.5 706.5 579.5 C 652.9283792694 579.5 609.5 536.0716207306 609.5 482.5" stroke-opacity="1" stroke-linecap="round" stroke-miterlimit="10"/><path fill="none" stroke="rgb(0,0,33)" paint-order="fill stroke markers" d=" M 612.5 486.5 C 612.5 431.8238097698 656.8238097698 387.5 711.5 387.5 C 766.1761902302 387.5 810.5 431.8238097698 810.5 486.5 C 810.5 541.1761902302 766.1761902302 585.5 711.5 585.5 C 656.8238097698 585.5 612.5 541.1761902302 612.5 486.5" stroke-opacity="1" stroke-linecap="round" stroke-miterlimit="10"/><path fill="none" stroke="rgb(0,0,33)" paint-order="fill stroke markers" d=" M 607.5 482.5 C 607.5 427.8238097698 651.8238097698 383.5 706.5 383.5 C 761.1761902302 383.5 805.5 427.8238097698 805.5 482.5 C 805.5 537.1761902302 761.1761902302 581.5 706.5 581.5 C 651.8238097698 581.5 607.5 537.1761902302 607.5 482.5" stroke-opacity="1" stroke-linecap="round" stroke-miterlimit="10"/><path fill="none" stroke="rgb(0,0,33)" paint-order="fill stroke markers" d=" M 610.5 486.5 C 610.5 430.7192402702 655.7192402702 385.5 711.5 385.5 C 767.2807597298 385.5 812.5 430.7192402702 812.5 486.5 C 812.5 542.2807597298 767.2807597298 587.5 711.5 587.5 C 655.7192402702 587.5 610.5 542.2807597298 610.5 486.5" stroke-opacity="1" stroke-linecap="round" stroke-miterlimit="10"/><path fill="none" stroke="rgb(0,0,33)" paint-order="fill stroke markers" d=" M 605.5 482.5 C 605.5 426.7192402702 650.7192402702 381.5 706.5 381.5 C 762.2807597298 381.5 807.5 426.7192402702 807.5 482.5 C 807.5 538.2807597298 762.2807597298 583.5 706.5 583.5 C 650.7192402702 583.5 605.5 538.2807597298 605.5 482.5" stroke-opacity="1" stroke-linecap="round" stroke-miterlimit="10"/><path fill="none" stroke="rgb(0,0,33)" paint-order="fill stroke markers" d=" M 608.5 486.5 C 608.5 429.6146707706 654.6146707706 383.5 711.5 383.5 C 768.3853292294 383.5 814.5 429.6146707706 814.5 486.5 C 814.5 543.3853292294 768.3853292294 589.5 711.5 589.5 C 654.6146707706 589.5 608.5 543.3853292294 608.5 486.5" stroke-opacity="1" stroke-linecap="round" stroke-miterlimit="10"/><path fill="none" stroke="rgb(0,0,33)" paint-order="fill stroke markers" d=" M 603.5 482.5 C 603.5 425.6146707706 649.6146707706 379.5 706.5 379.5 C 763.3853292294 379.5 809.5 425.6146707706 809.5 482.5 C 809.5 539.3853292294 763.3853292294 585.5 706.5 585.5 C 649.6146707706 585.5 603.5 539.3853292294 603.5 482.5" stroke-opacity="1" stroke-linecap="round" stroke-miterlimit="10"/><path fill="none" stroke="rgb(0,0,33)" paint-order="fill stroke markers" d=" M 606.5 486.5 C 606.5 428.510101271 653.510101271 381.5 711.5 381.5 C 769.489898729 381.5 816.5 428.510101271 816.5 486.5 C 816.5 544.489898729 769.489898729 591.5 711.5 591.5 C 653.510101271 591.5 606.5 544.489898729 606.5 486.5" stroke-opacity="1" stroke-linecap="round" stroke-miterlimit="10"/><path fill="none" stroke="rgb(0,0,33)" paint-order="fill stroke markers" d=" M 601.5 482.5 C 601.5 424.510101271 648.510101271 377.5 706.5 377.5 C 764.489898729 377.5 811.5 424.510101271 811.5 482.5 C 811.5 540.489898729 764.489898729 587.5 706.5 587.5 C 648.510101271 587.5 601.5 540.489898729 601.5 482.5" stroke-opacity="1" stroke-linecap="round" stroke-miterlimit="10"/><path fill="none" stroke="rgb(0,0,33)" paint-order="fill stroke markers" d=" M 604.5 486.5 C 604.5 427.4055317714 652.4055317714 379.5 711.5 379.5 C 770.5944682286 379.5 818.5 427.4055317714 818.5 486.5 C 818.5 545.5944682286 770.5944682286 593.5 711.5 593.5 C 652.4055317714 593.5 604.5 545.5944682286 604.5 486.5" stroke-opacity="1" stroke-linecap="round" stroke-miterlimit="10"/><path fill="none" stroke="rgb(0,0,33)" paint-order="fill stroke markers" d=" M 599.5 482.5 C 599.5 423.4055317714 647.4055317714 375.5 706.5 375.5 C 765.5944682286 375.5 813.5 423.4055317714 813.5 482.5 C 813.5 541.5944682286 765.5944682286 589.5 706.5 589.5 C 647.4055317714 589.5 599.5 541.5944682286 599.5 482.5" stroke-opacity="1" stroke-linecap="round" stroke-miterlimit="10"/><path fill="none" stroke="rgb(0,0,33)" paint-order="fill stroke markers" d=" M 602.5 486.5 C 602.5 426.3009622718 651.3009622718 377.5 711.5 377.5 C 771.6990377282 377.5 820.5 426.3009622718 820.5 486.5 C 820.5 546.6990377282 771.6990377282 595.5 711.5 595.5 C 651.3009622718 595.5 602.5 546.6990377282 602.5 486.5" stroke-opacity="1" stroke-linecap="round" stroke-miterlimit="10"/><path fill="none" stroke="rgb(0,0,33)" paint-order="fill stroke markers" d=" M 597.5 482.5 C 597.5 422.3009622718 646.3009622718 373.5 706.5 373.5 C 766.6990377282 373.5 815.5 422.3009622718 815.5 482.5 C 815.5 542.6990377282 766.6990377282 591.5 706.5 591.5 C 646.3009622718 591.5 597.5 542.6990377282 597.5 482.5" stroke-opacity="1" stroke-linecap="round" stroke-miterlimit="10"/><path fill="none" stroke="rgb(0,0,33)" paint-order="fill stroke markers" d=" M 600.5 486.5 C 600.5 425.1963927722 650.1963927721999 375.5 711.5 375.5 C 772.8036072278001 375.5 822.5 425.1963927722 822.5 486.5 C 822.5 547.8036072278001 772.8036072278001 597.5 711.5 597.5 C 650.1963927721999 597.5 600.5 547.8036072278001 600.5 486.5" stroke-opacity="1" stroke-linecap="round" stroke-miterlimit="10"/><path fill="none" stroke="rgb(0,0,33)" paint-order="fill stroke markers" d=" M 595.5 482.5 C 595.5 421.1963927722 645.1963927721999 371.5 706.5 371.5 C 767.8036072278001 371.5 817.5 421.1963927722 817.5 482.5 C 817.5 543.8036072278001 767.8036072278001 593.5 706.5 593.5 C 645.1963927721999 593.5 595.5 543.8036072278001 595.5 482.5" stroke-opacity="1" stroke-linecap="round" stroke-miterlimit="10"/><path fill="none" stroke="rgb(0,0,33)" paint-order="fill stroke markers" d=" M 598.5 486.5 C 598.5 424.0918232726 649.0918232726 373.5 711.5 373.5 C 773.9081767274 373.5 824.5 424.0918232726 824.5 486.5 C 824.5 548.9081767274 773.9081767274 599.5 711.5 599.5 C 649.0918232726 599.5 598.5 548.9081767274 598.5 486.5" stroke-opacity="1" stroke-linecap="round" stroke-miterlimit="10"/><path fill="none" stroke="rgb(0,0,33)" paint-order="fill stroke markers" d=" M 593.5 482.5 C 593.5 420.0918232726 644.0918232726 369.5 706.5 369.5 C 768.9081767274 369.5 819.5 420.0918232726 819.5 482.5 C 819.5 544.9081767274 768.9081767274 595.5 706.5 595.5 C 644.0918232726 595.5 593.5 544.9081767274 593.5 482.5" stroke-opacity="1" stroke-linecap="round" stroke-miterlimit="10"/><path fill="none" stroke="rgb(0,0,33)" paint-order="fill stroke markers" d=" M 596.5 486.5 C 596.5 422.987253773 647.987253773 371.5 711.5 371.5 C 775.012746227 371.5 826.5 422.987253773 826.5 486.5 C 826.5 550.012746227 775.012746227 601.5 711.5 601.5 C 647.987253773 601.5 596.5 550.012746227 596.5 486.5" stroke-opacity="1" stroke-linecap="round" stroke-miterlimit="10"/><path fill="none" stroke="rgb(0,0,33)" paint-order="fill stroke markers" d=" M 591.5 482.5 C 591.5 418.987253773 642.987253773 367.5 706.5 367.5 C 770.012746227 367.5 821.5 418.987253773 821.5 482.5 C 821.5 546.012746227 770.012746227 597.5 706.5 597.5 C 642.987253773 597.5 591.5 546.012746227 591.5 482.5" stroke-opacity="1" stroke-linecap="round" stroke-miterlimit="10"/><path fill="none" stroke="rgb(0,0,33)" paint-order="fill stroke markers" d=" M 594.5 486.5 C 594.5 421.8826842734 646.8826842734 369.5 711.5 369.5 C 776.1173157266 369.5 828.5 421.8826842734 828.5 486.5 C 828.5 551.1173157266 776.1173157266 603.5 711.5 603.5 C 646.8826842734 603.5 594.5 551.1173157266 594.5 486.5" stroke-opacity="1" stroke-linecap="round" stroke-miterlimit="10"/><path fill="none" stroke="rgb(0,0,33)" paint-order="fill stroke markers" d=" M 589.5 482.5 C 589.5 417.8826842734 641.8826842734 365.5 706.5 365.5 C 771.1173157266 365.5 823.5 417.8826842734 823.5 482.5 C 823.5 547.1173157266 771.1173157266 599.5 706.5 599.5 C 641.8826842734 599.5 589.5 547.1173157266 589.5 482.5" stroke-opacity="1" stroke-linecap="round" stroke-miterlimit="10"/><path fill="none" stroke="rgb(0,0,33)" paint-order="fill stroke markers" d=" M 592.5 486.5 C 592.5 420.7781147738 645.7781147738 367.5 711.5 367.5 C 777.2218852262 367.5 830.5 420.7781147738 830.5 486.5 C 830.5 552.2218852262 777.2218852262 605.5 711.5 605.5 C 645.7781147738 605.5 592.5 552.2218852262 592.5 486.5" stroke-opacity="1" stroke-linecap="round" stroke-miterlimit="10"/><path fill="none" stroke="rgb(0,0,33)" paint-order="fill stroke markers" d=" M 587.5 482.5 C 587.5 416.7781147738 640.7781147738 363.5 706.5 363.5 C 772.2218852262 363.5 825.5 416.7781147738 825.5 482.5 C 825.5 548.2218852262 772.2218852262 601.5 706.5 601.5 C 640.7781147738 601.5 587.5 548.2218852262 587.5 482.5" stroke-opacity="1" stroke-linecap="round" stroke-miterlimit="10"/><path fill="none" stroke="rgb(0,0,33)" paint-order="fill stroke markers" d=" M 590.5 486.5 C 590.5 419.6735452742 644.6735452742 365.5 711.5 365.5 C 778.3264547258 365.5 832.5 419.6735452742 832.5 486.5 C 832.5 553.3264547258 778.3264547258 607.5 711.5 607.5 C 644.6735452742 607.5 590.5 553.3264547258 590.5 486.5" stroke-opacity="1" stroke-linecap="round" stroke-miterlimit="10"/><path fill="none" stroke="rgb(0,0,33)" paint-order="fill stroke markers" d=" M 585.5 482.5 C 585.5 415.6735452742 639.6735452742 361.5 706.5 361.5 C 773.3264547258 361.5 827.5 415.6735452742 827.5 482.5 C 827.5 549.3264547258 773.3264547258 603.5 706.5 603.5 C 639.6735452742 603.5 585.5 549.3264547258 585.5 482.5" stroke-opacity="1" stroke-linecap="round" stroke-miterlimit="10"/><path fill="none" stroke="rgb(0,0,33)" paint-order="fill stroke markers" d=" M 588.5 486.5 C 588.5 418.5689757746 643.5689757746 363.5 711.5 363.5 C 779.4310242254 363.5 834.5 418.5689757746 834.5 486.5 C 834.5 554.4310242254 779.4310242254 609.5 711.5 609.5 C 643.5689757746 609.5 588.5 554.4310242254 588.5 486.5" stroke-opacity="1" stroke-linecap="round" stroke-miterlimit="10"/><path fill="none" stroke="rgb(0,0,33)" paint-order="fill stroke markers" d=" M 583.5 482.5 C 583.5 414.5689757746 638.5689757746 359.5 706.5 359.5 C 774.4310242254 359.5 829.5 414.5689757746 829.5 482.5 C 829.5 550.4310242254 774.4310242254 605.5 706.5 605.5 C 638.5689757746 605.5 583.5 550.4310242254 583.5 482.5" stroke-opacity="1" stroke-linecap="round" stroke-miterlimit="10"/><path fill="none" stroke="rgb(0,0,33)" paint-order="fill stroke markers" d=" M 586.5 486.5 C 586.5 417.464406275 642.464406275 361.5 711.5 361.5 C 780.535593725 361.5 836.5 417.464406275 836.5 486.5 C 836.5 555.535593725 780.535593725 611.5 711.5 611.5 C 642.464406275 611.5 586.5 555.535593725 586.5 486.5" stroke-opacity="1" stroke-linecap="round" stroke-miterlimit="10"/><path fill="none" stroke="rgb(0,0,33)" paint-order="fill stroke markers" d=" M 581.5 482.5 C 581.5 413.464406275 637.464406275 357.5 706.5 357.5 C 775.535593725 357.5 831.5 413.464406275 831.5 482.5 C 831.5 551.535593725 775.535593725 607.5 706.5 607.5 C 637.464406275 607.5 581.5 551.535593725 581.5 482.5" stroke-opacity="1" stroke-linecap="round" stroke-miterlimit="10"/><path fill="none" stroke="rgb(0,0,33)" paint-order="fill stroke markers" d=" M 584.5 486.5 C 584.5 416.3598367754 641.3598367754 359.5 711.5 359.5 C 781.6401632246 359.5 838.5 416.3598367754 838.5 486.5 C 838.5 556.6401632246 781.6401632246 613.5 711.5 613.5 C 641.3598367754 613.5 584.5 556.6401632246 584.5 486.5" stroke-opacity="1" stroke-linecap="round" stroke-miterlimit="10"/><path fill="none" stroke="rgb(0,0,33)" paint-order="fill stroke markers" d=" M 579.5 482.5 C 579.5 412.3598367754 636.3598367754 355.5 706.5 355.5 C 776.6401632246 355.5 833.5 412.3598367754 833.5 482.5 C 833.5 552.6401632246 776.6401632246 609.5 706.5 609.5 C 636.3598367754 609.5 579.5 552.6401632246 579.5 482.5" stroke-opacity="1" stroke-linecap="round" stroke-miterlimit="10"/><path fill="none" stroke="rgb(0,0,33)" paint-order="fill stroke markers" d=" M 582.5 486.5 C 582.5 415.2552672758 640.2552672758 357.5 711.5 357.5 C 782.7447327242 357.5 840.5 415.2552672758 840.5 486.5 C 840.5 557.7447327242 782.7447327242 615.5 711.5 615.5 C 640.2552672758 615.5 582.5 557.7447327242 582.5 486.5" stroke-opacity="1" stroke-linecap="round" stroke-miterlimit="10"/><path fill="none" stroke="rgb(0,0,33)" paint-order="fill stroke markers" d=" M 577.5 482.5 C 577.5 411.2552672758 635.2552672758 353.5 706.5 353.5 C 777.7447327242 353.5 835.5 411.2552672758 835.5 482.5 C 835.5 553.7447327242 777.7447327242 611.5 706.5 611.5 C 635.2552672758 611.5 577.5 553.7447327242 577.5 482.5" stroke-opacity="1" stroke-linecap="round" stroke-miterlimit="10"/><path fill="none" stroke="rgb(0,0,33)" paint-order="fill stroke markers" d=" M 580.5 486.5 C 580.5 414.1506977762 639.1506977762 355.5 711.5 355.5 C 783.8493022238 355.5 842.5 414.1506977762 842.5 486.5 C 842.5 558.8493022238 783.8493022238 617.5 711.5 617.5 C 639.1506977762 617.5 580.5 558.8493022238 580.5 486.5" stroke-opacity="1" stroke-linecap="round" stroke-miterlimit="10"/><path fill="none" stroke="rgb(0,0,33)" paint-order="fill stroke markers" d=" M 575.5 482.5 C 575.5 410.1506977762 634.1506977762 351.5 706.5 351.5 C 778.8493022238 351.5 837.5 410.1506977762 837.5 482.5 C 837.5 554.8493022238 778.8493022238 613.5 706.5 613.5 C 634.1506977762 613.5 575.5 554.8493022238 575.5 482.5" stroke-opacity="1" stroke-linecap="round" stroke-miterlimit="10"/><path fill="none" stroke="rgb(0,0,33)" paint-order="fill stroke markers" d=" M 578.5 486.5 C 578.5 413.04612827660003 638.0461282766 353.5 711.5 353.5 C 784.9538717234 353.5 844.5 413.04612827660003 844.5 486.5 C 844.5 559.9538717234 784.9538717234 619.5 711.5 619.5 C 638.0461282766 619.5 578.5 559.9538717234 578.5 486.5" stroke-opacity="1" stroke-linecap="round" stroke-miterlimit="10"/><path fill="none" stroke="rgb(0,0,33)" paint-order="fill stroke markers" d=" M 573.5 482.5 C 573.5 409.04612827660003 633.0461282766 349.5 706.5 349.5 C 779.9538717234 349.5 839.5 409.04612827660003 839.5 482.5 C 839.5 555.9538717234 779.9538717234 615.5 706.5 615.5 C 633.0461282766 615.5 573.5 555.9538717234 573.5 482.5" stroke-opacity="1" stroke-linecap="round" stroke-miterlimit="10"/><path fill="none" stroke="rgb(0,0,33)" paint-order="fill stroke markers" d=" M 576.5 486.5 C 576.5 411.941558777 636.941558777 351.5 711.5 351.5 C 786.058441223 351.5 846.5 411.941558777 846.5 486.5 C 846.5 561.058441223 786.058441223 621.5 711.5 621.5 C 636.941558777 621.5 576.5 561.058441223 576.5 486.5" stroke-opacity="1" stroke-linecap="round" stroke-miterlimit="10"/><path fill="none" stroke="rgb(0,0,33)" paint-order="fill stroke markers" d=" M 571.5 482.5 C 571.5 407.941558777 631.941558777 347.5 706.5 347.5 C 781.058441223 347.5 841.5 407.941558777 841.5 482.5 C 841.5 557.058441223 781.058441223 617.5 706.5 617.5 C 631.941558777 617.5 571.5 557.058441223 571.5 482.5" stroke-opacity="1" stroke-linecap="round" stroke-miterlimit="10"/><path fill="none" stroke="rgb(0,0,33)" paint-order="fill stroke markers" d=" M 574.5 486.5 C 574.5 410.8369892774 635.8369892774 349.5 711.5 349.5 C 787.1630107226 349.5 848.5 410.8369892774 848.5 486.5 C 848.5 562.1630107226 787.1630107226 623.5 711.5 623.5 C 635.8369892774 623.5 574.5 562.1630107226 574.5 486.5" stroke-opacity="1" stroke-linecap="round" stroke-miterlimit="10"/><path fill="none" stroke="rgb(0,0,33)" paint-order="fill stroke markers" d=" M 569.5 482.5 C 569.5 406.8369892774 630.8369892774 345.5 706.5 345.5 C 782.1630107226 345.5 843.5 406.8369892774 843.5 482.5 C 843.5 558.1630107226 782.1630107226 619.5 706.5 619.5 C 630.8369892774 619.5 569.5 558.1630107226 569.5 482.5" stroke-opacity="1" stroke-linecap="round" stroke-miterlimit="10"/><path fill="none" stroke="rgb(0,0,33)" paint-order="fill stroke markers" d=" M 572.5 486.5 C 572.5 409.73241977780003 634.7324197778 347.5 711.5 347.5 C 788.2675802222 347.5 850.5 409.73241977780003 850.5 486.5 C 850.5 563.2675802222 788.2675802222 625.5 711.5 625.5 C 634.7324197778 625.5 572.5 563.2675802222 572.5 486.5" stroke-opacity="1" stroke-linecap="round" stroke-miterlimit="10"/><path fill="none" stroke="rgb(0,0,33)" paint-order="fill stroke markers" d=" M 567.5 482.5 C 567.5 405.73241977780003 629.7324197778 343.5 706.5 343.5 C 783.2675802222 343.5 845.5 405.73241977780003 845.5 482.5 C 845.5 559.2675802222 783.2675802222 621.5 706.5 621.5 C 629.7324197778 621.5 567.5 559.2675802222 567.5 482.5" stroke-opacity="1" stroke-linecap="round" stroke-miterlimit="10"/><path fill="none" stroke="rgb(0,0,33)" paint-order="fill stroke markers" d=" M 570.5 486.5 C 570.5 408.6278502782 633.6278502782 345.5 711.5 345.5 C 789.3721497218 345.5 852.5 408.6278502782 852.5 486.5 C 852.5 564.3721497218 789.3721497218 627.5 711.5 627.5 C 633.6278502782 627.5 570.5 564.3721497218 570.5 486.5" stroke-opacity="1" stroke-linecap="round" stroke-miterlimit="10"/><path fill="none" stroke="rgb(0,0,33)" paint-order="fill stroke markers" d=" M 565.5 482.5 C 565.5 404.6278502782 628.6278502782 341.5 706.5 341.5 C 784.3721497218 341.5 847.5 404.6278502782 847.5 482.5 C 847.5 560.3721497218 784.3721497218 623.5 706.5 623.5 C 628.6278502782 623.5 565.5 560.3721497218 565.5 482.5" stroke-opacity="1" stroke-linecap="round" stroke-miterlimit="10"/><path fill="none" stroke="rgb(0,0,33)" paint-order="fill stroke markers" d=" M 568.5 486.5 C 568.5 407.5232807786 632.5232807786 343.5 711.5 343.5 C 790.4767192214 343.5 854.5 407.5232807786 854.5 486.5 C 854.5 565.4767192214 790.4767192214 629.5 711.5 629.5 C 632.5232807786 629.5 568.5 565.4767192214 568.5 486.5" stroke-opacity="1" stroke-linecap="round" stroke-miterlimit="10"/><path fill="none" stroke="rgb(0,0,33)" paint-order="fill stroke markers" d=" M 563.5 482.5 C 563.5 403.5232807786 627.5232807786 339.5 706.5 339.5 C 785.4767192214 339.5 849.5 403.5232807786 849.5 482.5 C 849.5 561.4767192214 785.4767192214 625.5 706.5 625.5 C 627.5232807786 625.5 563.5 561.4767192214 563.5 482.5" stroke-opacity="1" stroke-linecap="round" stroke-miterlimit="10"/><path fill="none" stroke="rgb(0,0,33)" paint-order="fill stroke markers" d=" M 566.5 486.5 C 566.5 406.41871127900004 631.418711279 341.5 711.5 341.5 C 791.581288721 341.5 856.5 406.41871127900004 856.5 486.5 C 856.5 566.581288721 791.581288721 631.5 711.5 631.5 C 631.418711279 631.5 566.5 566.581288721 566.5 486.5" stroke-opacity="1" stroke-linecap="round" stroke-miterlimit="10"/><path fill="none" stroke="rgb(0,0,33)" paint-order="fill stroke markers" d=" M 561.5 482.5 C 561.5 402.41871127900004 626.418711279 337.5 706.5 337.5 C 786.581288721 337.5 851.5 402.41871127900004 851.5 482.5 C 851.5 562.581288721 786.581288721 627.5 706.5 627.5 C 626.418711279 627.5 561.5 562.581288721 561.5 482.5" stroke-opacity="1" stroke-linecap="round" stroke-miterlimit="10"/><path fill="none" stroke="rgb(0,0,33)" paint-order="fill stroke markers" d=" M 564.5 486.5 C 564.5 405.3141417794 630.3141417794 339.5 711.5 339.5 C 792.6858582206 339.5 858.5 405.3141417794 858.5 486.5 C 858.5 567.6858582206 792.6858582206 633.5 711.5 633.5 C 630.3141417794 633.5 564.5 567.6858582206 564.5 486.5" stroke-opacity="1" stroke-linecap="round" stroke-miterlimit="10"/><path fill="none" stroke="rgb(0,0,33)" paint-order="fill stroke markers" d=" M 559.5 482.5 C 559.5 401.3141417794 625.3141417794 335.5 706.5 335.5 C 787.6858582206 335.5 853.5 401.3141417794 853.5 482.5 C 853.5 563.6858582206 787.6858582206 629.5 706.5 629.5 C 625.3141417794 629.5 559.5 563.6858582206 559.5 482.5" stroke-opacity="1" stroke-linecap="round" stroke-miterlimit="10"/><path fill="none" stroke="rgb(0,0,33)" paint-order="fill stroke markers" d=" M 562.5 486.5 C 562.5 404.2095722798 629.2095722798 337.5 711.5 337.5 C 793.7904277202 337.5 860.5 404.2095722798 860.5 486.5 C 860.5 568.7904277202 793.7904277202 635.5 711.5 635.5 C 629.2095722798 635.5 562.5 568.7904277202 562.5 486.5" stroke-opacity="1" stroke-linecap="round" stroke-miterlimit="10"/><path fill="none" stroke="rgb(0,0,33)" paint-order="fill stroke markers" d=" M 557.5 482.5 C 557.5 400.2095722798 624.2095722798 333.5 706.5 333.5 C 788.7904277202 333.5 855.5 400.2095722798 855.5 482.5 C 855.5 564.7904277202 788.7904277202 631.5 706.5 631.5 C 624.2095722798 631.5 557.5 564.7904277202 557.5 482.5" stroke-opacity="1" stroke-linecap="round" stroke-miterlimit="10"/><path fill="none" stroke="rgb(0,0,33)" paint-order="fill stroke markers" d=" M 560.5 486.5 C 560.5 403.10500278020004 628.1050027802 335.5 711.5 335.5 C 794.8949972198 335.5 862.5 403.10500278020004 862.5 486.5 C 862.5 569.8949972198 794.8949972198 637.5 711.5 637.5 C 628.1050027802 637.5 560.5 569.8949972198 560.5 486.5" stroke-opacity="1" stroke-linecap="round" stroke-miterlimit="10"/><path fill="none" stroke="rgb(0,0,33)" paint-order="fill stroke markers" d=" M 555.5 482.5 C 555.5 399.10500278020004 623.1050027802 331.5 706.5 331.5 C 789.8949972198 331.5 857.5 399.10500278020004 857.5 482.5 C 857.5 565.8949972198 789.8949972198 633.5 706.5 633.5 C 623.1050027802 633.5 555.5 565.8949972198 555.5 482.5" stroke-opacity="1" stroke-linecap="round" stroke-miterlimit="10"/><path fill="none" stroke="rgb(0,0,33)" paint-order="fill stroke markers" d=" M 558.5 486.5 C 558.5 402.0004332806 627.0004332806 333.5 711.5 333.5 C 795.9995667194 333.5 864.5 402.0004332806 864.5 486.5 C 864.5 570.9995667194 795.9995667194 639.5 711.5 639.5 C 627.0004332806 639.5 558.5 570.9995667194 558.5 486.5" stroke-opacity="1" stroke-linecap="round" stroke-miterlimit="10"/><path fill="none" stroke="rgb(0,0,33)" paint-order="fill stroke markers" d=" M 553.5 482.5 C 553.5 398.0004332806 622.0004332806 329.5 706.5 329.5 C 790.9995667194 329.5 859.5 398.0004332806 859.5 482.5 C 859.5 566.9995667194 790.9995667194 635.5 706.5 635.5 C 622.0004332806 635.5 553.5 566.9995667194 553.5 482.5" stroke-opacity="1" stroke-linecap="round" stroke-miterlimit="10"/><path fill="none" stroke="rgb(0,0,33)" paint-order="fill stroke markers" d=" M 556.5 486.5 C 556.5 400.895863781 625.895863781 331.5 711.5 331.5 C 797.104136219 331.5 866.5 400.895863781 866.5 486.5 C 866.5 572.104136219 797.104136219 641.5 711.5 641.5 C 625.895863781 641.5 556.5 572.104136219 556.5 486.5" stroke-opacity="1" stroke-linecap="round" stroke-miterlimit="10"/><path fill="none" stroke="rgb(0,0,33)" paint-order="fill stroke markers" d=" M 551.5 482.5 C 551.5 396.895863781 620.895863781 327.5 706.5 327.5 C 792.104136219 327.5 861.5 396.895863781 861.5 482.5 C 861.5 568.104136219 792.104136219 637.5 706.5 637.5 C 620.895863781 637.5 551.5 568.104136219 551.5 482.5" stroke-opacity="1" stroke-linecap="round" stroke-miterlimit="10"/><path fill="none" stroke="rgb(0,0,33)" paint-order="fill stroke markers" d=" M 554.5 486.5 C 554.5 399.7912942814 624.7912942814 329.5 711.5 329.5 C 798.2087057186 329.5 868.5 399.7912942814 868.5 486.5 C 868.5 573.2087057186 798.2087057186 643.5 711.5 643.5 C 624.7912942814 643.5 554.5 573.2087057186 554.5 486.5" stroke-opacity="1" stroke-linecap="round" stroke-miterlimit="10"/><path fill="none" stroke="rgb(0,0,33)" paint-order="fill stroke markers" d=" M 549.5 482.5 C 549.5 395.7912942814 619.7912942814 325.5 706.5 325.5 C 793.2087057186 325.5 863.5 395.7912942814 863.5 482.5 C 863.5 569.2087057186 793.2087057186 639.5 706.5 639.5 C 619.7912942814 639.5 549.5 569.2087057186 549.5 482.5" stroke-opacity="1" stroke-linecap="round" stroke-miterlimit="10"/><path fill="none" stroke="rgb(0,0,33)" paint-order="fill stroke markers" d=" M 552.5 486.5 C 552.5 398.6867247818 623.6867247818 327.5 711.5 327.5 C 799.3132752182 327.5 870.5 398.6867247818 870.5 486.5 C 870.5 574.3132752182 799.3132752182 645.5 711.5 645.5 C 623.6867247818 645.5 552.5 574.3132752182 552.5 486.5" stroke-opacity="1" stroke-linecap="round" stroke-miterlimit="10"/><path fill="none" stroke="rgb(0,0,33)" paint-order="fill stroke markers" d=" M 547.5 482.5 C 547.5 394.6867247818 618.6867247818 323.5 706.5 323.5 C 794.3132752182 323.5 865.5 394.6867247818 865.5 482.5 C 865.5 570.3132752182 794.3132752182 641.5 706.5 641.5 C 618.6867247818 641.5 547.5 570.3132752182 547.5 482.5" stroke-opacity="1" stroke-linecap="round" stroke-miterlimit="10"/><path fill="none" stroke="rgb(0,0,33)" paint-order="fill stroke markers" d=" M 550.5 486.5 C 550.5 397.5821552822 622.5821552822 325.5 711.5 325.5 C 800.4178447178 325.5 872.5 397.5821552822 872.5 486.5 C 872.5 575.4178447178 800.4178447178 647.5 711.5 647.5 C 622.5821552822 647.5 550.5 575.4178447178 550.5 486.5" stroke-opacity="1" stroke-linecap="round" stroke-miterlimit="10"/><path fill="none" stroke="rgb(0,0,33)" paint-order="fill stroke markers" d=" M 545.5 482.5 C 545.5 393.5821552822 617.5821552822 321.5 706.5 321.5 C 795.4178447178 321.5 867.5 393.5821552822 867.5 482.5 C 867.5 571.4178447178 795.4178447178 643.5 706.5 643.5 C 617.5821552822 643.5 545.5 571.4178447178 545.5 482.5" stroke-opacity="1" stroke-linecap="round" stroke-miterlimit="10"/><path fill="none" stroke="rgb(0,0,33)" paint-order="fill stroke markers" d=" M 548.5 486.5 C 548.5 396.4775857826 621.4775857826 323.5 711.5 323.5 C 801.5224142174 323.5 874.5 396.4775857826 874.5 486.5 C 874.5 576.5224142174 801.5224142174 649.5 711.5 649.5 C 621.4775857826 649.5 548.5 576.5224142174 548.5 486.5" stroke-opacity="1" stroke-linecap="round" stroke-miterlimit="10"/><path fill="none" stroke="rgb(0,0,33)" paint-order="fill stroke markers" d=" M 543.5 482.5 C 543.5 392.4775857826 616.4775857826 319.5 706.5 319.5 C 796.5224142174 319.5 869.5 392.4775857826 869.5 482.5 C 869.5 572.5224142174 796.5224142174 645.5 706.5 645.5 C 616.4775857826 645.5 543.5 572.5224142174 543.5 482.5" stroke-opacity="1" stroke-linecap="round" stroke-miterlimit="10"/><path fill="none" stroke="rgb(0,0,33)" paint-order="fill stroke markers" d=" M 546.5 486.5 C 546.5 395.37301628299997 620.373016283 321.5 711.5 321.5 C 802.626983717 321.5 876.5 395.37301628299997 876.5 486.5 C 876.5 577.626983717 802.626983717 651.5 711.5 651.5 C 620.373016283 651.5 546.5 577.626983717 546.5 486.5" stroke-opacity="1" stroke-linecap="round" stroke-miterlimit="10"/><path fill="none" stroke="rgb(0,0,33)" paint-order="fill stroke markers" d=" M 541.5 482.5 C 541.5 391.37301628299997 615.373016283 317.5 706.5 317.5 C 797.626983717 317.5 871.5 391.37301628299997 871.5 482.5 C 871.5 573.626983717 797.626983717 647.5 706.5 647.5 C 615.373016283 647.5 541.5 573.626983717 541.5 482.5" stroke-opacity="1" stroke-linecap="round" stroke-miterlimit="10"/><path fill="none" stroke="rgb(0,0,33)" paint-order="fill stroke markers" d=" M 544.5 486.5 C 544.5 394.2684467834 619.2684467834 319.5 711.5 319.5 C 803.7315532166 319.5 878.5 394.2684467834 878.5 486.5 C 878.5 578.7315532166 803.7315532166 653.5 711.5 653.5 C 619.2684467834 653.5 544.5 578.7315532166 544.5 486.5" stroke-opacity="1" stroke-linecap="round" stroke-miterlimit="10"/><path fill="none" stroke="rgb(0,0,33)" paint-order="fill stroke markers" d=" M 539.5 482.5 C 539.5 390.2684467834 614.2684467834 315.5 706.5 315.5 C 798.7315532166 315.5 873.5 390.2684467834 873.5 482.5 C 873.5 574.7315532166 798.7315532166 649.5 706.5 649.5 C 614.2684467834 649.5 539.5 574.7315532166 539.5 482.5" stroke-opacity="1" stroke-linecap="round" stroke-miterlimit="10"/><path fill="none" stroke="rgb(0,0,33)" paint-order="fill stroke markers" d=" M 542.5 486.5 C 542.5 393.1638772838 618.1638772838 317.5 711.5 317.5 C 804.8361227162 317.5 880.5 393.1638772838 880.5 486.5 C 880.5 579.8361227162 804.8361227162 655.5 711.5 655.5 C 618.1638772838 655.5 542.5 579.8361227162 542.5 486.5" stroke-opacity="1" stroke-linecap="round" stroke-miterlimit="10"/><path fill="none" stroke="rgb(0,0,33)" paint-order="fill stroke markers" d=" M 537.5 482.5 C 537.5 389.1638772838 613.1638772838 313.5 706.5 313.5 C 799.8361227162 313.5 875.5 389.1638772838 875.5 482.5 C 875.5 575.8361227162 799.8361227162 651.5 706.5 651.5 C 613.1638772838 651.5 537.5 575.8361227162 537.5 482.5" stroke-opacity="1" stroke-linecap="round" stroke-miterlimit="10"/><path fill="none" stroke="rgb(0,0,33)" paint-order="fill stroke markers" d=" M 540.5 486.5 C 540.5 392.0593077842 617.0593077842 315.5 711.5 315.5 C 805.9406922158 315.5 882.5 392.0593077842 882.5 486.5 C 882.5 580.9406922158 805.9406922158 657.5 711.5 657.5 C 617.0593077842 657.5 540.5 580.9406922158 540.5 486.5" stroke-opacity="1" stroke-linecap="round" stroke-miterlimit="10"/><path fill="none" stroke="rgb(0,0,33)" paint-order="fill stroke markers" d=" M 535.5 482.5 C 535.5 388.0593077842 612.0593077842 311.5 706.5 311.5 C 800.9406922158 311.5 877.5 388.0593077842 877.5 482.5 C 877.5 576.9406922158 800.9406922158 653.5 706.5 653.5 C 612.0593077842 653.5 535.5 576.9406922158 535.5 482.5" stroke-opacity="1" stroke-linecap="round" stroke-miterlimit="10"/><path fill="none" stroke="rgb(0,0,33)" paint-order="fill stroke markers" d=" M 538.5 486.5 C 538.5 390.9547382846 615.9547382846 313.5 711.5 313.5 C 807.0452617154 313.5 884.5 390.9547382846 884.5 486.5 C 884.5 582.0452617154 807.0452617154 659.5 711.5 659.5 C 615.9547382846 659.5 538.5 582.0452617154 538.5 486.5" stroke-opacity="1" stroke-linecap="round" stroke-miterlimit="10"/><path fill="none" stroke="rgb(0,0,33)" paint-order="fill stroke markers" d=" M 533.5 482.5 C 533.5 386.9547382846 610.9547382846 309.5 706.5 309.5 C 802.0452617154 309.5 879.5 386.9547382846 879.5 482.5 C 879.5 578.0452617154 802.0452617154 655.5 706.5 655.5 C 610.9547382846 655.5 533.5 578.0452617154 533.5 482.5" stroke-opacity="1" stroke-linecap="round" stroke-miterlimit="10"/><path fill="none" stroke="rgb(0,0,33)" paint-order="fill stroke markers" d=" M 536.5 486.5 C 536.5 389.850168785 614.850168785 311.5 711.5 311.5 C 808.149831215 311.5 886.5 389.850168785 886.5 486.5 C 886.5 583.149831215 808.149831215 661.5 711.5 661.5 C 614.850168785 661.5 536.5 583.149831215 536.5 486.5" stroke-opacity="1" stroke-linecap="round" stroke-miterlimit="10"/><path fill="none" stroke="rgb(0,0,33)" paint-order="fill stroke markers" d=" M 531.5 482.5 C 531.5 385.850168785 609.850168785 307.5 706.5 307.5 C 803.149831215 307.5 881.5 385.850168785 881.5 482.5 C 881.5 579.149831215 803.149831215 657.5 706.5 657.5 C 609.850168785 657.5 531.5 579.149831215 531.5 482.5" stroke-opacity="1" stroke-linecap="round" stroke-miterlimit="10"/><path fill="none" stroke="rgb(0,0,33)" paint-order="fill stroke markers" d=" M 534.5 486.5 C 534.5 388.7455992854 613.7455992854 309.5 711.5 309.5 C 809.2544007146 309.5 888.5 388.7455992854 888.5 486.5 C 888.5 584.2544007146 809.2544007146 663.5 711.5 663.5 C 613.7455992854 663.5 534.5 584.2544007146 534.5 486.5" stroke-opacity="1" stroke-linecap="round" stroke-miterlimit="10"/><path fill="none" stroke="rgb(0,0,33)" paint-order="fill stroke markers" d=" M 529.5 482.5 C 529.5 384.7455992854 608.7455992854 305.5 706.5 305.5 C 804.2544007146 305.5 883.5 384.7455992854 883.5 482.5 C 883.5 580.2544007146 804.2544007146 659.5 706.5 659.5 C 608.7455992854 659.5 529.5 580.2544007146 529.5 482.5" stroke-opacity="1" stroke-linecap="round" stroke-miterlimit="10"/><path fill="none" stroke="rgb(0,0,33)" paint-order="fill stroke markers" d=" M 532.5 486.5 C 532.5 387.6410297858 612.6410297858 307.5 711.5 307.5 C 810.3589702142 307.5 890.5 387.6410297858 890.5 486.5 C 890.5 585.3589702142 810.3589702142 665.5 711.5 665.5 C 612.6410297858 665.5 532.5 585.3589702142 532.5 486.5" stroke-opacity="1" stroke-linecap="round" stroke-miterlimit="10"/><path fill="none" stroke="rgb(0,0,33)" paint-order="fill stroke markers" d=" M 527.5 482.5 C 527.5 383.6410297858 607.6410297858 303.5 706.5 303.5 C 805.3589702142 303.5 885.5 383.6410297858 885.5 482.5 C 885.5 581.3589702142 805.3589702142 661.5 706.5 661.5 C 607.6410297858 661.5 527.5 581.3589702142 527.5 482.5" stroke-opacity="1" stroke-linecap="round" stroke-miterlimit="10"/><path fill="none" stroke="rgb(0,0,33)" paint-order="fill stroke markers" d=" M 530.5 486.5 C 530.5 386.5364602862 611.5364602862 305.5 711.5 305.5 C 811.4635397138 305.5 892.5 386.5364602862 892.5 486.5 C 892.5 586.4635397138 811.4635397138 667.5 711.5 667.5 C 611.5364602862 667.5 530.5 586.4635397138 530.5 486.5" stroke-opacity="1" stroke-linecap="round" stroke-miterlimit="10"/><path fill="none" stroke="rgb(0,0,33)" paint-order="fill stroke markers" d=" M 525.5 482.5 C 525.5 382.5364602862 606.5364602862 301.5 706.5 301.5 C 806.4635397138 301.5 887.5 382.5364602862 887.5 482.5 C 887.5 582.4635397138 806.4635397138 663.5 706.5 663.5 C 606.5364602862 663.5 525.5 582.4635397138 525.5 482.5" stroke-opacity="1" stroke-linecap="round" stroke-miterlimit="10"/><path fill="none" stroke="rgb(0,0,33)" paint-order="fill stroke markers" d=" M 528.5 486.5 C 528.5 385.4318907866 610.4318907866 303.5 711.5 303.5 C 812.5681092134 303.5 894.5 385.4318907866 894.5 486.5 C 894.5 587.5681092134 812.5681092134 669.5 711.5 669.5 C 610.4318907866 669.5 528.5 587.5681092134 528.5 486.5" stroke-opacity="1" stroke-linecap="round" stroke-miterlimit="10"/><path fill="none" stroke="rgb(0,0,33)" paint-order="fill stroke markers" d=" M 523.5 482.5 C 523.5 381.4318907866 605.4318907866 299.5 706.5 299.5 C 807.5681092134 299.5 889.5 381.4318907866 889.5 482.5 C 889.5 583.5681092134 807.5681092134 665.5 706.5 665.5 C 605.4318907866 665.5 523.5 583.5681092134 523.5 482.5" stroke-opacity="1" stroke-linecap="round" stroke-miterlimit="10"/><path fill="none" stroke="rgb(0,0,33)" paint-order="fill stroke markers" d=" M 526.5 486.5 C 526.5 384.327321287 609.327321287 301.5 711.5 301.5 C 813.672678713 301.5 896.5 384.327321287 896.5 486.5 C 896.5 588.672678713 813.672678713 671.5 711.5 671.5 C 609.327321287 671.5 526.5 588.672678713 526.5 486.5" stroke-opacity="1" stroke-linecap="round" stroke-miterlimit="10"/><path fill="none" stroke="rgb(0,0,33)" paint-order="fill stroke markers" d=" M 521.5 482.5 C 521.5 380.327321287 604.327321287 297.5 706.5 297.5 C 808.672678713 297.5 891.5 380.327321287 891.5 482.5 C 891.5 584.672678713 808.672678713 667.5 706.5 667.5 C 604.327321287 667.5 521.5 584.672678713 521.5 482.5" stroke-opacity="1" stroke-linecap="round" stroke-miterlimit="10"/><path fill="none" stroke="rgb(0,0,33)" paint-order="fill stroke markers" d=" M 524.5 486.5 C 524.5 383.2227517874 608.2227517874001 299.5 711.5 299.5 C 814.7772482125999 299.5 898.5 383.2227517874 898.5 486.5 C 898.5 589.7772482125999 814.7772482125999 673.5 711.5 673.5 C 608.2227517874001 673.5 524.5 589.7772482125999 524.5 486.5" stroke-opacity="1" stroke-linecap="round" stroke-miterlimit="10"/><path fill="none" stroke="rgb(0,0,33)" paint-order="fill stroke markers" d=" M 519.5 482.5 C 519.5 379.2227517874 603.2227517874001 295.5 706.5 295.5 C 809.7772482125999 295.5 893.5 379.2227517874 893.5 482.5 C 893.5 585.7772482125999 809.7772482125999 669.5 706.5 669.5 C 603.2227517874001 669.5 519.5 585.7772482125999 519.5 482.5" stroke-opacity="1" stroke-linecap="round" stroke-miterlimit="10"/><path fill="none" stroke="rgb(0,0,33)" paint-order="fill stroke markers" d=" M 522.5 486.5 C 522.5 382.1181822878 607.1181822878 297.5 711.5 297.5 C 815.8818177122 297.5 900.5 382.1181822878 900.5 486.5 C 900.5 590.8818177122 815.8818177122 675.5 711.5 675.5 C 607.1181822878 675.5 522.5 590.8818177122 522.5 486.5" stroke-opacity="1" stroke-linecap="round" stroke-miterlimit="10"/><path fill="none" stroke="rgb(0,0,33)" paint-order="fill stroke markers" d=" M 517.5 482.5 C 517.5 378.1181822878 602.1181822878 293.5 706.5 293.5 C 810.8818177122 293.5 895.5 378.1181822878 895.5 482.5 C 895.5 586.8818177122 810.8818177122 671.5 706.5 671.5 C 602.1181822878 671.5 517.5 586.8818177122 517.5 482.5" stroke-opacity="1" stroke-linecap="round" stroke-miterlimit="10"/><path fill="none" stroke="rgb(0,0,33)" paint-order="fill stroke markers" d=" M 520.5 486.5 C 520.5 381.0136127882 606.0136127882 295.5 711.5 295.5 C 816.9863872118 295.5 902.5 381.0136127882 902.5 486.5 C 902.5 591.9863872118 816.9863872118 677.5 711.5 677.5 C 606.0136127882 677.5 520.5 591.9863872118 520.5 486.5" stroke-opacity="1" stroke-linecap="round" stroke-miterlimit="10"/><path fill="none" stroke="rgb(0,0,33)" paint-order="fill stroke markers" d=" M 515.5 482.5 C 515.5 377.0136127882 601.0136127882 291.5 706.5 291.5 C 811.9863872118 291.5 897.5 377.0136127882 897.5 482.5 C 897.5 587.9863872118 811.9863872118 673.5 706.5 673.5 C 601.0136127882 673.5 515.5 587.9863872118 515.5 482.5" stroke-opacity="1" stroke-linecap="round" stroke-miterlimit="10"/><path fill="none" stroke="rgb(0,0,33)" paint-order="fill stroke markers" d=" M 518.5 486.5 C 518.5 379.9090432886 604.9090432886001 293.5 711.5 293.5 C 818.0909567113999 293.5 904.5 379.9090432886 904.5 486.5 C 904.5 593.0909567113999 818.0909567113999 679.5 711.5 679.5 C 604.9090432886001 679.5 518.5 593.0909567113999 518.5 486.5" stroke-opacity="1" stroke-linecap="round" stroke-miterlimit="10"/><path fill="none" stroke="rgb(0,0,33)" paint-order="fill stroke markers" d=" M 513.5 482.5 C 513.5 375.9090432886 599.9090432886001 289.5 706.5 289.5 C 813.0909567113999 289.5 899.5 375.9090432886 899.5 482.5 C 899.5 589.0909567113999 813.0909567113999 675.5 706.5 675.5 C 599.9090432886001 675.5 513.5 589.0909567113999 513.5 482.5" stroke-opacity="1" stroke-linecap="round" stroke-miterlimit="10"/><path fill="none" stroke="rgb(0,0,33)" paint-order="fill stroke markers" d=" M 516.5 486.5 C 516.5 378.804473789 603.804473789 291.5 711.5 291.5 C 819.195526211 291.5 906.5 378.804473789 906.5 486.5 C 906.5 594.195526211 819.195526211 681.5 711.5 681.5 C 603.804473789 681.5 516.5 594.195526211 516.5 486.5" stroke-opacity="1" stroke-linecap="round" stroke-miterlimit="10"/><path fill="none" stroke="rgb(0,0,33)" paint-order="fill stroke markers" d=" M 511.5 482.5 C 511.5 374.804473789 598.804473789 287.5 706.5 287.5 C 814.195526211 287.5 901.5 374.804473789 901.5 482.5 C 901.5 590.195526211 814.195526211 677.5 706.5 677.5 C 598.804473789 677.5 511.5 590.195526211 511.5 482.5" stroke-opacity="1" stroke-linecap="round" stroke-miterlimit="10"/><path fill="none" stroke="rgb(0,0,33)" paint-order="fill stroke markers" d=" M 514.5 486.5 C 514.5 377.6999042894 602.6999042894 289.5 711.5 289.5 C 820.3000957106 289.5 908.5 377.6999042894 908.5 486.5 C 908.5 595.3000957106 820.3000957106 683.5 711.5 683.5 C 602.6999042894 683.5 514.5 595.3000957106 514.5 486.5" stroke-opacity="1" stroke-linecap="round" stroke-miterlimit="10"/><path fill="none" stroke="rgb(0,0,33)" paint-order="fill stroke markers" d=" M 509.5 482.5 C 509.5 373.6999042894 597.6999042894 285.5 706.5 285.5 C 815.3000957106 285.5 903.5 373.6999042894 903.5 482.5 C 903.5 591.3000957106 815.3000957106 679.5 706.5 679.5 C 597.6999042894 679.5 509.5 591.3000957106 509.5 482.5" stroke-opacity="1" stroke-linecap="round" stroke-miterlimit="10"/><path fill="none" stroke="rgb(0,0,33)" paint-order="fill stroke markers" d=" M 512.5 486.5 C 512.5 376.5953347898 601.5953347898001 287.5 711.5 287.5 C 821.4046652101999 287.5 910.5 376.5953347898 910.5 486.5 C 910.5 596.4046652101999 821.4046652101999 685.5 711.5 685.5 C 601.5953347898001 685.5 512.5 596.4046652101999 512.5 486.5" stroke-opacity="1" stroke-linecap="round" stroke-miterlimit="10"/><path fill="none" stroke="rgb(0,0,33)" paint-order="fill stroke markers" d=" M 507.5 482.5 C 507.5 372.5953347898 596.5953347898001 283.5 706.5 283.5 C 816.4046652101999 283.5 905.5 372.5953347898 905.5 482.5 C 905.5 592.4046652101999 816.4046652101999 681.5 706.5 681.5 C 596.5953347898001 681.5 507.5 592.4046652101999 507.5 482.5" stroke-opacity="1" stroke-linecap="round" stroke-miterlimit="10"/><path fill="none" stroke="rgb(0,0,33)" paint-order="fill stroke markers" d=" M 510.5 486.5 C 510.5 375.4907652902 600.4907652902 285.5 711.5 285.5 C 822.5092347098 285.5 912.5 375.4907652902 912.5 486.5 C 912.5 597.5092347098 822.5092347098 687.5 711.5 687.5 C 600.4907652902 687.5 510.5 597.5092347098 510.5 486.5" stroke-opacity="1" stroke-linecap="round" stroke-miterlimit="10"/><path fill="none" stroke="rgb(0,0,33)" paint-order="fill stroke markers" d=" M 505.5 482.5 C 505.5 371.4907652902 595.4907652902 281.5 706.5 281.5 C 817.5092347098 281.5 907.5 371.4907652902 907.5 482.5 C 907.5 593.5092347098 817.5092347098 683.5 706.5 683.5 C 595.4907652902 683.5 505.5 593.5092347098 505.5 482.5" stroke-opacity="1" stroke-linecap="round" stroke-miterlimit="10"/><path fill="none" stroke="rgb(0,0,33)" paint-order="fill stroke markers" d=" M 508.5 486.5 C 508.5 374.3861957906 599.3861957906 283.5 711.5 283.5 C 823.6138042094 283.5 914.5 374.3861957906 914.5 486.5 C 914.5 598.6138042094 823.6138042094 689.5 711.5 689.5 C 599.3861957906 689.5 508.5 598.6138042094 508.5 486.5" stroke-opacity="1" stroke-linecap="round" stroke-miterlimit="10"/><path fill="none" stroke="rgb(0,0,33)" paint-order="fill stroke markers" d=" M 503.5 482.5 C 503.5 370.3861957906 594.3861957906 279.5 706.5 279.5 C 818.6138042094 279.5 909.5 370.3861957906 909.5 482.5 C 909.5 594.6138042094 818.6138042094 685.5 706.5 685.5 C 594.3861957906 685.5 503.5 594.6138042094 503.5 482.5" stroke-opacity="1" stroke-linecap="round" stroke-miterlimit="10"/><path fill="none" stroke="rgb(0,0,33)" paint-order="fill stroke markers" d=" M 506.5 486.5 C 506.5 373.281626291 598.2816262910001 281.5 711.5 281.5 C 824.7183737089999 281.5 916.5 373.281626291 916.5 486.5 C 916.5 599.7183737089999 824.7183737089999 691.5 711.5 691.5 C 598.2816262910001 691.5 506.5 599.7183737089999 506.5 486.5" stroke-opacity="1" stroke-linecap="round" stroke-miterlimit="10"/><path fill="none" stroke="rgb(0,0,33)" paint-order="fill stroke markers" d=" M 501.5 482.5 C 501.5 369.281626291 593.2816262910001 277.5 706.5 277.5 C 819.7183737089999 277.5 911.5 369.281626291 911.5 482.5 C 911.5 595.7183737089999 819.7183737089999 687.5 706.5 687.5 C 593.2816262910001 687.5 501.5 595.7183737089999 501.5 482.5" stroke-opacity="1" stroke-linecap="round" stroke-miterlimit="10"/><path fill="none" stroke="rgb(0,0,33)" paint-order="fill stroke markers" d=" M 504.5 486.5 C 504.5 372.1770567914 597.1770567914 279.5 711.5 279.5 C 825.8229432086 279.5 918.5 372.1770567914 918.5 486.5 C 918.5 600.8229432086 825.8229432086 693.5 711.5 693.5 C 597.1770567914 693.5 504.5 600.8229432086 504.5 486.5" stroke-opacity="1" stroke-linecap="round" stroke-miterlimit="10"/><path fill="none" stroke="rgb(0,0,33)" paint-order="fill stroke markers" d=" M 499.5 482.5 C 499.5 368.1770567914 592.1770567914 275.5 706.5 275.5 C 820.8229432086 275.5 913.5 368.1770567914 913.5 482.5 C 913.5 596.8229432086 820.8229432086 689.5 706.5 689.5 C 592.1770567914 689.5 499.5 596.8229432086 499.5 482.5" stroke-opacity="1" stroke-linecap="round" stroke-miterlimit="10"/><path fill="none" stroke="rgb(0,0,33)" paint-order="fill stroke markers" d=" M 502.5 486.5 C 502.5 371.07248729180003 596.0724872918 277.5 711.5 277.5 C 826.9275127082 277.5 920.5 371.07248729180003 920.5 486.5 C 920.5 601.9275127082 826.9275127082 695.5 711.5 695.5 C 596.0724872918 695.5 502.5 601.9275127082 502.5 486.5" stroke-opacity="1" stroke-linecap="round" stroke-miterlimit="10"/><path fill="none" stroke="rgb(0,0,33)" paint-order="fill stroke markers" d=" M 497.5 482.5 C 497.5 367.07248729180003 591.0724872918 273.5 706.5 273.5 C 821.9275127082 273.5 915.5 367.07248729180003 915.5 482.5 C 915.5 597.9275127082 821.9275127082 691.5 706.5 691.5 C 591.0724872918 691.5 497.5 597.9275127082 497.5 482.5" stroke-opacity="1" stroke-linecap="round" stroke-miterlimit="10"/><path fill="none" stroke="rgb(0,0,33)" paint-order="fill stroke markers" d=" M 500.5 486.5 C 500.5 369.9679177922 594.9679177922001 275.5 711.5 275.5 C 828.0320822077999 275.5 922.5 369.9679177922 922.5 486.5 C 922.5 603.0320822077999 828.0320822077999 697.5 711.5 697.5 C 594.9679177922001 697.5 500.5 603.0320822077999 500.5 486.5" stroke-opacity="1" stroke-linecap="round" stroke-miterlimit="10"/><path fill="none" stroke="rgb(0,0,33)" paint-order="fill stroke markers" d=" M 495.5 482.5 C 495.5 365.9679177922 589.9679177922001 271.5 706.5 271.5 C 823.0320822077999 271.5 917.5 365.9679177922 917.5 482.5 C 917.5 599.0320822077999 823.0320822077999 693.5 706.5 693.5 C 589.9679177922001 693.5 495.5 599.0320822077999 495.5 482.5" stroke-opacity="1" stroke-linecap="round" stroke-miterlimit="10"/><path fill="none" stroke="rgb(0,0,33)" paint-order="fill stroke markers" d=" M 498.5 486.5 C 498.5 368.8633482926 593.8633482926 273.5 711.5 273.5 C 829.1366517074 273.5 924.5 368.8633482926 924.5 486.5 C 924.5 604.1366517074 829.1366517074 699.5 711.5 699.5 C 593.8633482926 699.5 498.5 604.1366517074 498.5 486.5" stroke-opacity="1" stroke-linecap="round" stroke-miterlimit="10"/><path fill="none" stroke="rgb(0,0,33)" paint-order="fill stroke markers" d=" M 493.5 482.5 C 493.5 364.8633482926 588.8633482926 269.5 706.5 269.5 C 824.1366517074 269.5 919.5 364.8633482926 919.5 482.5 C 919.5 600.1366517074 824.1366517074 695.5 706.5 695.5 C 588.8633482926 695.5 493.5 600.1366517074 493.5 482.5" stroke-opacity="1" stroke-linecap="round" stroke-miterlimit="10"/><path fill="none" stroke="rgb(0,0,33)" paint-order="fill stroke markers" d=" M 496.5 486.5 C 496.5 367.75877879300003 592.758778793 271.5 711.5 271.5 C 830.241221207 271.5 926.5 367.75877879300003 926.5 486.5 C 926.5 605.241221207 830.241221207 701.5 711.5 701.5 C 592.758778793 701.5 496.5 605.241221207 496.5 486.5" stroke-opacity="1" stroke-linecap="round" stroke-miterlimit="10"/><path fill="none" stroke="rgb(0,0,33)" paint-order="fill stroke markers" d=" M 491.5 482.5 C 491.5 363.75877879300003 587.758778793 267.5 706.5 267.5 C 825.241221207 267.5 921.5 363.75877879300003 921.5 482.5 C 921.5 601.241221207 825.241221207 697.5 706.5 697.5 C 587.758778793 697.5 491.5 601.241221207 491.5 482.5" stroke-opacity="1" stroke-linecap="round" stroke-miterlimit="10"/><path fill="none" stroke="rgb(0,0,33)" paint-order="fill stroke markers" d=" M 494.5 486.5 C 494.5 366.6542092934 591.6542092934 269.5 711.5 269.5 C 831.3457907066 269.5 928.5 366.6542092934 928.5 486.5 C 928.5 606.3457907066 831.3457907066 703.5 711.5 703.5 C 591.6542092934 703.5 494.5 606.3457907066 494.5 486.5" stroke-opacity="1" stroke-linecap="round" stroke-miterlimit="10"/><path fill="none" stroke="rgb(0,0,33)" paint-order="fill stroke markers" d=" M 489.5 482.5 C 489.5 362.6542092934 586.6542092934 265.5 706.5 265.5 C 826.3457907066 265.5 923.5 362.6542092934 923.5 482.5 C 923.5 602.3457907066 826.3457907066 699.5 706.5 699.5 C 586.6542092934 699.5 489.5 602.3457907066 489.5 482.5" stroke-opacity="1" stroke-linecap="round" stroke-miterlimit="10"/><path fill="none" stroke="rgb(0,0,33)" paint-order="fill stroke markers" d=" M 492.5 486.5 C 492.5 365.5496397938 590.5496397938 267.5 711.5 267.5 C 832.4503602062 267.5 930.5 365.5496397938 930.5 486.5 C 930.5 607.4503602062 832.4503602062 705.5 711.5 705.5 C 590.5496397938 705.5 492.5 607.4503602062 492.5 486.5" stroke-opacity="1" stroke-linecap="round" stroke-miterlimit="10"/><path fill="none" stroke="rgb(0,0,33)" paint-order="fill stroke markers" d=" M 487.5 482.5 C 487.5 361.5496397938 585.5496397938 263.5 706.5 263.5 C 827.4503602062 263.5 925.5 361.5496397938 925.5 482.5 C 925.5 603.4503602062 827.4503602062 701.5 706.5 701.5 C 585.5496397938 701.5 487.5 603.4503602062 487.5 482.5" stroke-opacity="1" stroke-linecap="round" stroke-miterlimit="10"/><path fill="none" stroke="rgb(0,0,33)" paint-order="fill stroke markers" d=" M 490.5 486.5 C 490.5 364.44507029420004 589.4450702942 265.5 711.5 265.5 C 833.5549297058 265.5 932.5 364.44507029420004 932.5 486.5 C 932.5 608.5549297058 833.5549297058 707.5 711.5 707.5 C 589.4450702942 707.5 490.5 608.5549297058 490.5 486.5" stroke-opacity="1" stroke-linecap="round" stroke-miterlimit="10"/><path fill="none" stroke="rgb(0,0,33)" paint-order="fill stroke markers" d=" M 485.5 482.5 C 485.5 360.44507029420004 584.4450702942 261.5 706.5 261.5 C 828.5549297058 261.5 927.5 360.44507029420004 927.5 482.5 C 927.5 604.5549297058 828.5549297058 703.5 706.5 703.5 C 584.4450702942 703.5 485.5 604.5549297058 485.5 482.5" stroke-opacity="1" stroke-linecap="round" stroke-miterlimit="10"/><path fill="none" stroke="rgb(0,0,33)" paint-order="fill stroke markers" d=" M 488.5 486.5 C 488.5 363.3405007946 588.3405007946 263.5 711.5 263.5 C 834.6594992054 263.5 934.5 363.3405007946 934.5 486.5 C 934.5 609.6594992054 834.6594992054 709.5 711.5 709.5 C 588.3405007946 709.5 488.5 609.6594992054 488.5 486.5" stroke-opacity="1" stroke-linecap="round" stroke-miterlimit="10"/><path fill="none" stroke="rgb(0,0,33)" paint-order="fill stroke markers" d=" M 483.5 482.5 C 483.5 359.3405007946 583.3405007946 259.5 706.5 259.5 C 829.6594992054 259.5 929.5 359.3405007946 929.5 482.5 C 929.5 605.6594992054 829.6594992054 705.5 706.5 705.5 C 583.3405007946 705.5 483.5 605.6594992054 483.5 482.5" stroke-opacity="1" stroke-linecap="round" stroke-miterlimit="10"/></g></svg>